<?xml version="1.0" encoding="UTF-8" standalone="no"?>
<!-- Created with Inkscape (http://www.inkscape.org/) -->

<svg
   width="200mm"
   height="200mm"
   viewBox="0 0 200 200"
   version="1.1"
   id="svg5"
   xml:space="preserve"
   inkscape:version="1.2.2 (732a01da63, 2022-12-09)"
   sodipodi:docname="ShopBlock.svg"
   xmlns:inkscape="http://www.inkscape.org/namespaces/inkscape"
   xmlns:sodipodi="http://sodipodi.sourceforge.net/DTD/sodipodi-0.dtd"
   xmlns="http://www.w3.org/2000/svg"
   xmlns:svg="http://www.w3.org/2000/svg"><sodipodi:namedview
     id="namedview7"
     pagecolor="#ffffff"
     bordercolor="#666666"
     borderopacity="1.0"
     inkscape:showpageshadow="2"
     inkscape:pageopacity="0"
     inkscape:pagecheckerboard="true"
     inkscape:deskcolor="#d1d1d1"
     inkscape:document-units="mm"
     showgrid="false"
     inkscape:zoom="0.44631734"
     inkscape:cx="283.43062"
     inkscape:cy="410.02216"
     inkscape:window-width="2560"
     inkscape:window-height="1387"
     inkscape:window-x="1912"
     inkscape:window-y="-8"
     inkscape:window-maximized="1"
     inkscape:current-layer="layer1" /><defs
     id="defs2" /><g
     inkscape:label="Layer 1"
     inkscape:groupmode="layer"
     id="layer1"><path
       style="display:inline;fill:#563724;fill-opacity:1;stroke:none;stroke-width:0.264583px;stroke-linecap:butt;stroke-linejoin:miter;stroke-opacity:1"
       d="m 6.7069289,27.561286 3.4253841,116.908674 9.641211,7.16206 7.708394,-0.67527 29.266531,22.9174 0.03596,7.14718 13.945284,10.36116 24.005677,-6.52276 0.209592,-8.80285 67.120147,-16.46038 8.49154,8.82827 20.08482,-4.45228 L 194.42902,61.200725 72.937851,77.129681 72.728261,68.53643 59.943176,62.458276 59.10481,52.188289 44.852587,47.577277 43.595038,38.145659 Z"
       id="path7874"
       sodipodi:nodetypes="cccccccccccccccccccc" /><path
       style="display:inline;fill:#7c4f35;fill-opacity:1;stroke:none;stroke-width:0.264583px;stroke-linecap:butt;stroke-linejoin:miter;stroke-opacity:1"
       d="m 7.126112,20.749561 112.182318,-8.817739 1.01201,7.953945 41.49912,8.358234 -0.0509,7.346236 15.75532,5.280111 0.38322,7.04983 17.36014,5.31607 -0.97603,6.916521 -15.59659,2.407217 L 112.13147,41.918305 51.769107,49.044418 44.852587,45.271769 43.80463,37.516884 7.7548866,28.504448 Z"
       id="path7880"
       sodipodi:nodetypes="cccccccccccccccc" /><path
       style="display:inline;fill:#c10000;fill-opacity:1;stroke:none;stroke-width:0.264583px;stroke-linecap:butt;stroke-linejoin:miter;stroke-opacity:1"
       d="M 50.511559,49.882784 112.34106,42.337489 182.28143,61.783009 73.378101,76.367598 72.728261,67.278882 59.733587,61.61991 58.685628,53.65543 Z"
       id="path7883"
       sodipodi:nodetypes="cccccccc" /><path
       style="display:inline;fill:none;stroke:#ffffff;stroke-width:3.5;stroke-linecap:butt;stroke-linejoin:round;stroke-dasharray:none;stroke-opacity:1"
       d="M 182.94181,62.053987 112.55065,42.127897 50.301966,49.044418"
       id="path1897"
       sodipodi:nodetypes="ccc" /><g
       id="g9453"><path
         style="display:inline;fill:none;fill-opacity:0;stroke:#ffffff;stroke-width:7.7;stroke-linecap:butt;stroke-linejoin:bevel;stroke-dasharray:none;stroke-opacity:1"
         d="m 5.8685628,19.701604 4.4014222,125.335736 9.222027,7.3357 7.754888,-1.67673 29.552405,22.63588 v 8.17407 l 13.204266,10.26999 25.150982,-6.91652 -0.209592,-9.43162 c 25.269519,-6.04119 44.186319,-10.44155 67.278879,-15.92896 l 8.59325,9.43162 20.33039,-4.40142 4.19182,-111.921876 -17.60568,-4.191831 V 39.6128 l -15.92896,-3.353464 0.20959,-8.593254 -41.9183,-7.754887 0.20959,-7.335703 -2.93428,-1.047958 z"
         id="path1044"
         sodipodi:nodetypes="ccccccccccccccccccccc" /><g
         id="g1891"
         transform="matrix(1.1992318,0,0,1.1992318,-6.5525679,-5.5882347)"
         style="display:inline;stroke-width:1.41674028;stroke-dasharray:none;stroke:#000000;stroke-opacity:1"><path
           style="display:none;fill:#ffff00;fill-opacity:1;stroke:#000000;stroke-width:1.66773;stroke-linecap:butt;stroke-linejoin:round;stroke-dasharray:none;stroke-opacity:1"
           d="M 83.417427,24.7318 83.62702,50.092377 65.182966,51.9787 v 8.593251 l 11.737126,4.19183 43.175858,-5.239787 -0.41919,-7.964479 -9.01243,-4.401421 -8.59326,0.838367 V 18.653646 L 97.460061,18.234463 83.417428,18.024871 Z"
           id="path1885"
           sodipodi:nodetypes="ccccccccccccc" /><path
           style="display:none;fill:#ffff00;fill-opacity:1;stroke:#000000;stroke-width:1.66773;stroke-linecap:butt;stroke-linejoin:round;stroke-dasharray:none;stroke-opacity:1"
           d="m 64.973374,6.7069289 -3.772649,4.8206051 -0.20959,8.802844 4.191831,1.25755 7.12611,-0.838367 v -1.676732 l 39.193614,15.928955 -0.20959,5.868564 4.40142,1.467141 6.70693,-0.838366 0.2096,-11.527533 z"
           id="path1883" /><path
           style="fill:#e5e500;stroke:#ffffff;stroke-width:1.66773429;stroke-linecap:butt;stroke-linejoin:round;stroke-opacity:0;fill-opacity:1;stroke-dasharray:none"
           d="m 60.953921,11.650705 3.932358,-4.8936018 28.924682,11.7096898 3.844972,-0.08739 4.281907,0.436929 0.0874,2.796344 20.53565,8.563804 -0.26216,11.27276 -6.64131,0.873859 -4.2819,-1.485559 v -5.592687 l -9.35028,-3.844972 0.0874,16.515905 8.38903,-0.699087 9.1755,4.544059 0.43693,7.777332 -43.430717,5.243145 -11.447532,-4.281902 V 52.110306 L 83.324671,50.100433 83.149899,23.622552 72.401453,19.078493 v 1.572944 l -7.253018,0.961243 -4.107128,-1.310786 z"
           id="path9448" /></g><path
         style="display:inline;fill:none;stroke:#ffffff;stroke-width:7.7;stroke-linecap:butt;stroke-linejoin:miter;stroke-dasharray:none;stroke-opacity:1"
         d="M 72.937851,76.920092 193.87217,60.571951"
         id="path1872" /><path
         style="display:inline;fill:none;stroke:#ffffff;stroke-width:7.7;stroke-linecap:butt;stroke-linejoin:bevel;stroke-dasharray:none;stroke-opacity:1"
         d="m 6.9165206,26.618124 38.1456574,11.946719 0.209592,8.593251 13.623449,5.239788 0.209592,9.222028 13.833043,5.868561 -1.257551,124.287769"
         id="path1772"
         sodipodi:nodetypes="ccccccc" /></g></g></svg>
